<svg width="576" height="342" viewBox="0 0 576 342" fill="none" xmlns="http://www.w3.org/2000/svg">
<path fill-rule="evenodd" clip-rule="evenodd" d="M524.074 35.7885L485.392 71.5087L485.61 73.9044C485.89 76.9857 488.505 79.0012 491.383 78.3545C493.718 77.8291 568.168 9.57176 569.525 6.71039C570.562 4.52525 569.739 1.63811 567.807 0.68286C564.012 -1.19246 564.827 -1.84605 524.074 35.7885ZM445.675 17.5783C444.552 18.2376 438.503 23.565 432.234 29.4178C422.462 38.5392 420.835 40.3341 420.835 41.9895C420.835 44.3638 422.588 46.3818 425.133 46.9392C426.914 47.3288 427.992 46.4936 440.276 35.204C454.317 22.2986 455.008 21.3333 452.31 18.389C450.559 16.4779 448.069 16.1737 445.675 17.5783ZM312.257 34.9187C311.049 36.0336 310.586 37.1466 310.586 38.9339C310.586 42.386 312.414 44.311 315.69 44.311C318.967 44.311 320.795 42.386 320.795 38.9339C320.795 35.9783 318.405 33.3758 315.69 33.3758C314.721 33.3758 313.176 34.0703 312.257 34.9187ZM538.459 43.9025C529.299 52.3081 528.304 54.1187 531.317 56.9015C534.656 59.9847 536.023 59.3663 545.579 50.4473C550.94 45.4435 554.222 41.8965 554.222 41.1052C554.222 38.7542 551.654 36.5181 548.954 36.5181C546.74 36.5181 545.739 37.222 538.459 43.9025ZM302.524 43.9025C301.75 44.5077 300.919 45.7728 300.678 46.7148C300.324 48.0968 300.653 48.8095 302.383 50.407C304.294 52.1717 304.837 52.3483 307.38 52.0335C312.236 51.432 314.071 47.809 311.217 44.4587C310.083 43.1264 309.232 42.8027 306.869 42.8027C305.062 42.8027 303.39 43.2257 302.524 43.9025ZM320.164 44.4587C318.292 46.6551 318.382 48.802 320.424 50.6867C324.849 54.7742 332.791 50.3335 329.993 45.336C328.842 43.2803 327.748 42.8027 324.191 42.8027C322.174 42.8027 321.251 43.1823 320.164 44.4587ZM365.302 50.8922C363.843 51.8852 357.672 57.3641 351.589 63.0679C341.479 72.5488 340.53 73.6298 340.53 75.6716C340.53 77.3358 340.987 78.237 342.324 79.2073C345.944 81.8374 346.647 81.4252 360.758 68.3947C373.003 57.0863 373.877 56.126 373.877 53.9855C373.877 52.2566 373.436 51.3717 372.084 50.3901C369.694 48.6536 368.459 48.7454 365.302 50.8922ZM311.997 52.0002C310.144 54.1753 310.133 57.8279 311.974 59.6523C313.986 61.6464 317.562 61.5112 319.384 59.372C322.397 55.835 320.15 50.3442 315.69 50.3442C314.035 50.3442 313.02 50.7992 311.997 52.0002ZM408.216 52.5469C405.649 53.587 355.765 99.778 354.943 101.875C353.651 105.17 356.881 108.775 360.384 107.95C361.255 107.745 373.988 96.4591 388.679 82.87C416.443 57.1893 416.786 56.806 414.463 53.9823C413.001 52.2063 410.483 51.6275 408.216 52.5469ZM446.015 71.5289C443.838 72.2685 442.337 74.1376 439.055 80.1959C437.183 83.6524 435.609 86.5245 435.559 86.5779C435.508 86.6313 432.157 87.1272 428.112 87.6802C418.991 88.9264 417.211 89.729 415.755 93.2477C414.192 97.026 415.006 98.6198 421.672 104.831L427.202 109.985L425.936 117.609C424.712 124.979 424.711 125.305 425.902 127.349C427.204 129.581 430.513 131.423 433.188 131.403C434.067 131.397 437.994 129.87 441.914 128.011L449.042 124.631L456.18 128.088C462.266 131.036 463.708 131.497 465.963 131.217C467.417 131.037 469.334 130.259 470.222 129.489C473.067 127.021 473.359 124.92 471.921 117.275L470.621 110.362L476.447 104.921C481.892 99.8333 482.293 99.279 482.592 96.4076C482.868 93.7555 482.663 93.0636 481.087 91.3341C479.057 89.1062 477.148 88.5211 468.271 87.4075L462.285 86.6564L458.578 79.8308C455.796 74.7082 454.368 72.765 452.859 72.0442C450.855 71.0877 447.958 70.8696 446.015 71.5289ZM299.698 81.5923C296.409 82.733 294.803 84.7767 289.921 94.032C287.093 99.3959 284.383 103.916 283.901 104.077C283.419 104.238 278.049 105.049 271.967 105.878C265.24 106.796 260.231 107.798 259.174 108.437C256.143 110.271 254.671 113.127 254.99 116.552C255.267 119.513 255.527 119.832 264.257 127.91L273.239 136.222L271.412 145.602C268.704 159.514 269.036 161.931 274.044 164.751C278.005 166.981 280.54 166.445 292.139 160.924L302.76 155.868L313.155 160.924C321.512 164.989 324.127 165.98 326.495 165.98C330.501 165.98 333.772 163.888 335.047 160.511C335.947 158.125 335.869 157.017 334.105 147.02L332.183 136.129L341.04 127.959C348.379 121.189 349.974 119.385 350.349 117.431C350.916 114.474 348.925 109.998 346.351 108.44C345.201 107.744 340.276 106.779 332.632 105.751L320.707 104.147L315.963 95.0174C313.355 89.9954 310.541 85.2066 309.713 84.3745C307.135 81.7884 302.69 80.5535 299.698 81.5923ZM456.471 94.6523C457.357 95.1884 460.726 95.9532 463.958 96.3529C467.19 96.752 469.835 97.2585 469.835 97.4778C469.835 97.6972 467.848 99.6309 465.421 101.775C462.993 103.918 460.797 106.445 460.54 107.389C460.284 108.333 460.521 111.58 461.068 114.604C461.614 117.629 461.95 120.103 461.814 120.103C461.677 120.103 459.241 118.972 456.399 117.589C449.767 114.362 447.867 114.368 441.418 117.637C438.638 119.045 436.245 120.088 436.099 119.953C435.953 119.819 436.313 117.365 436.898 114.5C437.483 111.636 437.765 108.569 437.525 107.685C437.285 106.801 435.065 104.143 432.592 101.778C430.119 99.4122 428.223 97.3848 428.379 97.2717C428.534 97.1592 431.045 96.7375 433.959 96.3347C441.656 95.2713 442.673 94.6077 446.115 88.3979L449.078 83.0535L451.969 88.3658C453.56 91.2875 455.586 94.1162 456.471 94.6523ZM313.855 110.843C315.963 112.912 317.781 113.383 328.961 114.75C333.64 115.323 337.927 115.932 338.489 116.104C339.19 116.319 336.916 118.713 331.221 123.759C324.99 129.278 322.772 131.658 322.292 133.345C321.807 135.044 322.101 138.063 323.496 145.757C324.511 151.35 325.217 155.925 325.066 155.925C324.915 155.925 320.35 153.77 314.919 151.136C302.51 145.116 302.482 145.116 289.571 151.482C284.563 153.951 280.354 155.869 280.219 155.744C280.084 155.619 280.793 151.013 281.794 145.508C282.968 139.055 283.43 134.833 283.096 133.62C282.765 132.425 279.578 128.94 274.35 124.057C268.986 119.046 266.46 116.273 267.088 116.085C267.619 115.927 272.415 115.237 277.748 114.552C283.773 113.779 288.281 112.867 289.658 112.142C291.432 111.208 292.937 109.048 297.237 101.264L302.604 91.5502L307.344 100.328C309.951 105.155 312.881 109.887 313.855 110.843ZM520.019 145.094C467.114 193.967 469.151 191.801 472.866 195.232C476.588 198.67 474.231 200.561 527.165 151.678C570.262 111.88 576 106.359 576 104.684C576 101.699 574.312 99.9923 571.361 99.9923C568.932 99.9923 567.084 101.616 520.019 145.094ZM373.537 113.465C370.948 114.547 355.786 128.681 354.927 130.814C354.154 132.73 355.432 136.043 357.184 136.663C360.59 137.87 361.723 137.204 371.274 128.383C378.529 121.684 380.683 119.322 380.683 118.065C380.683 115.582 380.021 114.488 377.912 113.481C375.649 112.4 376.079 112.402 373.537 113.465ZM413.009 138.891C411.886 139.544 394.507 155.32 374.388 173.95C339.232 206.505 337.808 207.914 337.808 210.155C337.808 213.109 339.732 215 342.735 215C344.742 215 348.362 211.841 382.888 179.957C419.234 146.393 420.835 144.817 420.835 142.61C420.835 140.868 420.397 139.987 419.042 139.003C416.827 137.394 415.623 137.371 413.009 138.891ZM466.637 163.028C459.86 169.287 459.543 169.698 459.75 171.964C460.029 175.029 462.655 177.042 465.522 176.386C468.089 175.799 480.467 164.368 481.103 161.998C481.813 159.351 479.634 156.926 476.314 156.668C473.86 156.477 473.415 156.77 466.637 163.028ZM257.936 181.109C256.439 182.196 256.143 182.915 256.143 185.463C256.143 188.01 256.439 188.729 257.936 189.816C260.377 191.589 262.01 191.454 264.362 189.282C267.346 186.525 266.738 182.001 263.181 180.504C260.849 179.523 259.982 179.623 257.936 181.109ZM247.345 190.889C244.517 194.209 246.328 197.863 251.093 198.453C254.767 198.908 257.73 196.757 257.73 193.634C257.73 190.828 255.542 189.233 251.693 189.233C249.33 189.233 248.48 189.557 247.345 190.889ZM265.67 190.49C263.644 192.362 263.855 195.725 266.102 197.357C271.665 201.398 279.402 195.023 274.304 190.6C272.203 188.778 267.587 188.72 265.67 190.49ZM257.504 198.032C256.546 198.916 256.143 200.126 256.143 202.117C256.143 205.623 257.86 207.459 261.141 207.459C264.325 207.459 266.011 205.567 266.011 201.995C266.011 199.792 265.66 198.915 264.404 197.976C262.321 196.418 259.223 196.444 257.504 198.032Z" fill="black"/>
<path d="M35.28 310.44C28 310.44 21.88 309.16 16.92 306.6C11.96 304.04 7.88 300.64 4.68 296.4L13.32 288.12C16.52 291.96 19.92 294.8 23.52 296.64C27.12 298.4 31.2 299.28 35.76 299.28C41.04 299.28 45.08 298.08 47.88 295.68C50.76 293.28 52.2 289.84 52.2 285.36C52.2 281.76 51.16 279 49.08 277.08C47 275.08 43.44 273.64 38.4 272.76L29.28 271.32C25.28 270.68 21.92 269.64 19.2 268.2C16.48 266.68 14.28 264.92 12.6 262.92C10.92 260.84 9.68 258.56 8.88 256.08C8.16 253.52 7.8 250.84 7.8 248.04C7.8 240.12 10.36 234.12 15.48 230.04C20.6 225.88 27.64 223.8 36.6 223.8C43.24 223.8 48.88 224.88 53.52 227.04C58.24 229.12 62.04 232.08 64.92 235.92L56.52 244.32C54.2 241.52 51.44 239.28 48.24 237.6C45.12 235.84 41.24 234.96 36.6 234.96C31.64 234.96 27.84 236.04 25.2 238.2C22.64 240.28 21.36 243.36 21.36 247.44C21.36 250.88 22.36 253.6 24.36 255.6C26.44 257.52 30.08 258.92 35.28 259.8L44.16 261.36C51.68 262.72 57.16 265.48 60.6 269.64C64.04 273.72 65.76 278.72 65.76 284.64C65.76 288.48 65.08 292 63.72 295.2C62.44 298.4 60.48 301.12 57.84 303.36C55.28 305.6 52.08 307.36 48.24 308.64C44.48 309.84 40.16 310.44 35.28 310.44ZM82.5131 220.2H95.5931V273.84H96.1931L105.913 263.88L123.313 247.08H138.793L113.713 271.44L141.553 309H125.833L104.233 278.88L95.5931 286.92V309H82.5131V220.2ZM198.026 247.08H211.226L181.226 321C179.626 325 177.506 328 174.866 330C172.306 332 168.586 333 163.706 333H153.266V322.44H167.906L173.546 308.16L148.586 247.08H162.266L172.106 273L179.786 294.24H180.506L188.186 273L198.026 247.08ZM326.213 310.44C315.573 310.44 307.653 306.68 302.453 299.16C297.333 291.64 294.773 280.96 294.773 267.12C294.773 253.28 297.333 242.6 302.453 235.08C307.653 227.56 315.573 223.8 326.213 223.8C330.293 223.8 333.813 224.36 336.773 225.48C339.813 226.52 342.413 228 344.573 229.92C346.733 231.76 348.533 233.96 349.973 236.52C351.493 239 352.733 241.68 353.693 244.56L341.573 248.64C340.933 246.72 340.213 244.92 339.413 243.24C338.613 241.56 337.613 240.12 336.413 238.92C335.213 237.72 333.773 236.76 332.093 236.04C330.493 235.32 328.493 234.96 326.093 234.96C320.173 234.96 315.853 237.24 313.133 241.8C310.413 246.28 309.053 252.36 309.053 260.04V274.2C309.053 281.88 310.413 288 313.133 292.56C315.853 297.04 320.173 299.28 326.093 299.28C328.493 299.28 330.493 298.92 332.093 298.2C333.773 297.48 335.213 296.52 336.413 295.32C337.613 294.12 338.613 292.68 339.413 291C340.213 289.32 340.933 287.52 341.573 285.6L353.693 289.68C352.733 292.56 351.493 295.28 349.973 297.84C348.533 300.32 346.733 302.52 344.573 304.44C342.413 306.28 339.813 307.76 336.773 308.88C333.813 309.92 330.293 310.44 326.213 310.44ZM369.846 220.2H382.926V257.64H383.526C384.166 256.04 384.966 254.52 385.926 253.08C386.966 251.56 388.206 250.28 389.646 249.24C391.086 248.12 392.766 247.24 394.686 246.6C396.606 245.96 398.846 245.64 401.406 245.64C407.646 245.64 412.686 247.68 416.526 251.76C420.366 255.84 422.286 261.64 422.286 269.16V309H409.206V271.08C409.206 261.24 404.926 256.32 396.366 256.32C394.686 256.32 393.046 256.56 391.446 257.04C389.846 257.44 388.406 258.08 387.126 258.96C385.846 259.84 384.806 260.96 384.006 262.32C383.286 263.68 382.926 265.24 382.926 267V309H369.846V220.2ZM490.759 309C486.999 309 484.159 308.04 482.239 306.12C480.399 304.2 479.279 301.68 478.879 298.56H478.279C477.079 302.32 474.879 305.24 471.679 307.32C468.559 309.4 464.559 310.44 459.679 310.44C453.359 310.44 448.319 308.8 444.559 305.52C440.799 302.16 438.919 297.56 438.919 291.72C438.919 285.72 441.119 281.16 445.519 278.04C449.999 274.84 456.839 273.24 466.039 273.24H477.919V268.44C477.919 260.04 473.479 255.84 464.599 255.84C460.599 255.84 457.359 256.64 454.879 258.24C452.399 259.76 450.319 261.8 448.639 264.36L440.839 258C442.599 254.64 445.559 251.76 449.719 249.36C453.879 246.88 459.239 245.64 465.799 245.64C473.639 245.64 479.799 247.52 484.279 251.28C488.759 255.04 490.999 260.48 490.999 267.6V298.68H498.799V309H490.759ZM463.399 300.84C467.639 300.84 471.119 299.88 473.839 297.96C476.559 296.04 477.919 293.56 477.919 290.52V281.52H466.279C456.839 281.52 452.119 284.36 452.119 290.04V292.44C452.119 295.24 453.119 297.36 455.119 298.8C457.119 300.16 459.879 300.84 463.399 300.84ZM543.392 309C537.952 309 533.952 307.56 531.392 304.68C528.832 301.72 527.552 297.92 527.552 293.28V257.64H508.472V247.08H522.032C524.352 247.08 525.992 246.64 526.952 245.76C527.912 244.8 528.392 243.12 528.392 240.72V225.24H540.632V247.08H567.032V257.64H540.632V298.44H567.032V309H543.392Z" fill="black"/>
</svg>
